<svg xmlns="http://www.w3.org/2000/svg" viewBox="0 0 400 300" width="406" height="306" class="illustration styles_illustrationTablet__1DWOa"><g id="_13_authentication_outline" data-name="#13_authentication_outline"><rect x="140.95" y="57.39" width="119.47" height="185.23" rx="9.69" fill="#68e1fd"></rect><path d="M250.73,243.61H150.64A10.7,10.7,0,0,1,140,232.92V67.08a10.7,10.7,0,0,1,10.69-10.69H250.73a10.7,10.7,0,0,1,10.69,10.69V232.92A10.7,10.7,0,0,1,250.73,243.61ZM150.64,58.39A8.7,8.7,0,0,0,142,67.08V232.92a8.7,8.7,0,0,0,8.69,8.69H250.73a8.7,8.7,0,0,0,8.69-8.69V67.08a8.7,8.7,0,0,0-8.69-8.69Z" fill="#093f68"></path><rect x="146.63" y="76.09" width="108.11" height="144.86" rx="5.07" fill="#fff"></rect><path d="M249.67,221.94h-98a6.07,6.07,0,0,1-6.07-6.06V81.16a6.07,6.07,0,0,1,6.07-6.07h98a6.07,6.07,0,0,1,6.07,6.07V215.88A6.07,6.07,0,0,1,249.67,221.94Zm-98-144.85a4.07,4.07,0,0,0-4.07,4.07V215.88a4.07,4.07,0,0,0,4.07,4.06h98a4.07,4.07,0,0,0,4.07-4.06V81.16a4.07,4.07,0,0,0-4.07-4.07Z" fill="#093f68"></path><circle cx="185.27" cy="67.7" r="1.56" fill="#093f68"></circle><path d="M217.66,68.7H192.72a1,1,0,0,1,0-2h24.94a1,1,0,0,1,0,2Z" fill="#093f68"></path><circle cx="200.69" cy="231.19" r="6.57" fill="#093f68"></circle><path d="M220.88,181.88v-8.51c0-9.37-9.16-17-20.45-17S180,164,180,173.37v8.51Z" fill="#fff"></path><path d="M220.88,182.88H180a1,1,0,0,1-1-1v-8.51c0-9.91,9.63-18,21.45-18s21.45,8.06,21.45,18v8.51A1,1,0,0,1,220.88,182.88Zm-39.9-2h38.9v-7.51c0-8.81-8.73-16-19.45-16s-19.45,7.16-19.45,16Z" fill="#093f68"></path><path d="M198.42,96h5.18a23.75,23.75,0,0,1,23.75,23.75v17.7a0,0,0,0,1,0,0H174.68a0,0,0,0,1,0,0v-17.7A23.75,23.75,0,0,1,198.42,96Z" fill="#fff"></path><path d="M227.35,138.46H174.68a1,1,0,0,1-1-1V119.77A24.77,24.77,0,0,1,198.42,95h5.18a24.77,24.77,0,0,1,24.75,24.75v17.69A1,1,0,0,1,227.35,138.46Zm-51.67-2h50.67V119.77A22.77,22.77,0,0,0,203.6,97h-5.18a22.77,22.77,0,0,0-22.74,22.75Z" fill="#093f68"></path><path d="M196.87,154.85h7.52a0,0,0,0,1,0,0v4.33a3.19,3.19,0,0,1-3.19,3.19h-1.13a3.19,3.19,0,0,1-3.19-3.19v-4.33A0,0,0,0,1,196.87,154.85Z" fill="#fff"></path><path d="M201.19,163.37h-1.13a4.2,4.2,0,0,1-4.19-4.19v-4.33a1,1,0,0,1,1-1h7.51a1,1,0,0,1,1,1v4.33A4.2,4.2,0,0,1,201.19,163.37Zm-3.32-7.52v3.33a2.2,2.2,0,0,0,2.19,2.19h1.13a2.2,2.2,0,0,0,2.19-2.19v-3.33Z" fill="#093f68"></path><ellipse cx="179.14" cy="135.33" rx="7.3" ry="6.29" fill="#fff"></ellipse><path d="M179.14,142.62c-4.57,0-8.3-3.27-8.3-7.29s3.73-7.3,8.3-7.3,8.31,3.28,8.31,7.3S183.72,142.62,179.14,142.62Zm0-12.59c-3.47,0-6.3,2.38-6.3,5.3s2.83,5.29,6.3,5.29,6.31-2.37,6.31-5.29S182.62,130,179.14,130Z" fill="#093f68"></path><ellipse cx="221.72" cy="135.33" rx="7.3" ry="6.29" fill="#fff"></ellipse><path d="M221.72,142.62c-4.58,0-8.31-3.27-8.31-7.29s3.73-7.3,8.31-7.3,8.3,3.28,8.3,7.3S226.29,142.62,221.72,142.62Zm0-12.59c-3.48,0-6.31,2.38-6.31,5.3s2.83,5.29,6.31,5.29,6.3-2.37,6.3-5.29S225.19,130,221.72,130Z" fill="#093f68"></path><path d="M200.62,155.84h0a22,22,0,0,1-22-22V121.47a8,8,0,0,1,8.05-8H214.6a8,8,0,0,1,8.05,8v12.34A22,22,0,0,1,200.62,155.84Z" fill="#fff"></path><path d="M200.62,156.84a23.05,23.05,0,0,1-23-23V121.47a9.06,9.06,0,0,1,9.05-9H214.6a9.06,9.06,0,0,1,9.05,9v12.34A23.05,23.05,0,0,1,200.62,156.84Zm-14-42.42a7.05,7.05,0,0,0-7.05,7v12.34a21,21,0,1,0,42.05,0V121.47a7.05,7.05,0,0,0-7.05-7Z" fill="#093f68"></path><path d="M188.43,182.33a1,1,0,0,1-1-1V171.12a1,1,0,0,1,2,0v10.21A1,1,0,0,1,188.43,182.33Z" fill="#093f68"></path><path d="M212.43,182.33a1,1,0,0,1-1-1V171.12a1,1,0,0,1,2,0v10.21A1,1,0,0,1,212.43,182.33Z" fill="#093f68"></path><path d="M126.59,110.75h32.86l4.78,8.33v-8.33h2.45a9,9,0,0,0,9-9V95.43a9,9,0,0,0-9-9H126.59a9,9,0,0,0-9,9v6.34A9,9,0,0,0,126.59,110.75Z" fill="#ffbc0e"></path><path d="M164.23,120.08a1,1,0,0,1-.87-.5l-4.49-7.83H126.58a10,10,0,0,1-10-10V95.43a10,10,0,0,1,10-10h40.1a10,10,0,0,1,10,10v6.34a10,10,0,0,1-10,10h-1.45v7.33a1,1,0,0,1-.74,1A1.15,1.15,0,0,1,164.23,120.08ZM126.58,87.46a8,8,0,0,0-8,8v6.34a8,8,0,0,0,8,8h32.87a1,1,0,0,1,.87.5l2.91,5.08v-4.58a1,1,0,0,1,1-1h2.45a8,8,0,0,0,8-8V95.43a8,8,0,0,0-8-8Z" fill="#093f68"></path><path d="M135.91,96.06,139.17,95l.75,2.37-3.26,1,2.07,2.84-2.07,1.52-2.1-2.87-2,2.75-2-1.53,2.1-2.71-3.32-1.15.8-2.37,3.26,1.17V92.62h2.55Z" fill="#fff"></path><path d="M147.93,96.06,151.2,95l.74,2.37-3.26,1,2.07,2.84-2.07,1.52-2.1-2.87-2,2.75-2-1.53,2.1-2.71-3.32-1.15.8-2.37,3.27,1.17V92.62h2.54Z" fill="#fff"></path><path d="M160,96.06,163.22,95l.75,2.37-3.27,1,2.07,2.84-2.07,1.52-2.1-2.87-2,2.75-2-1.53,2.1-2.71-3.32-1.15.8-2.37,3.27,1.17V92.62H160Z" fill="#fff"></path><circle cx="260.42" cy="178.37" r="21.97" fill="#70cc40"></circle><path d="M260.42,201.34a23,23,0,1,1,23-23A23,23,0,0,1,260.42,201.34Zm0-43.94a21,21,0,1,0,21,21A21,21,0,0,0,260.42,157.4Z" fill="#093f68"></path><path d="M254.92,188.79l-7.64-7.64a1.25,1.25,0,0,1,0-1.76l2.41-2.39a1.24,1.24,0,0,1,1.75,0l3.84,3.85a.8.8,0,0,0,1.13,0L269,168.31a1.8,1.8,0,0,1,2.55,0l1.6,1.6a1.79,1.79,0,0,1,0,2.55L256.8,188.79A1.33,1.33,0,0,1,254.92,188.79Z" fill="#fff"></path><rect x="167.41" y="191.31" width="64.2" height="12.88" rx="6.44" fill="#f56132"></rect><path d="M225.17,205.19H173.85a7.44,7.44,0,0,1,0-14.88h51.32a7.44,7.44,0,0,1,0,14.88Zm-51.32-12.88a5.44,5.44,0,0,0,0,10.88h51.32a5.44,5.44,0,0,0,0-10.88Z" fill="#093f68"></path></g></svg>